<svg width="22" height="22" viewBox="0 0 22 22" fill="none" xmlns="http://www.w3.org/2000/svg">
<g id="Frame">
<path id="iconPrimary" d="M17.875 10.175H11.825V4.12499C11.825 3.66952 11.4555 3.29999 11 3.29999C10.5445 3.29999 10.175 3.66952 10.175 4.12499V10.175H4.12499C3.66952 10.175 3.29999 10.5445 3.29999 11C3.29999 11.4555 3.66952 11.825 4.12499 11.825H10.175V17.875C10.175 18.3305 10.5445 18.7 11 18.7C11.4555 18.7 11.825 18.3305 11.825 17.875V11.825H17.875C18.3305 11.825 18.7 11.4555 18.7 11C18.7 10.5445 18.3305 10.175 17.875 10.175Z" fill="white"/>
</g>
</svg>
