<svg width="23" height="22" viewBox="0 0 23 22" fill="none" xmlns="http://www.w3.org/2000/svg">
<g clip-path="url(#clip0_197_38879)">
<path d="M17.625 9.57812C17.625 13.4062 11.949 16.5048 11.7073 16.6328C11.6436 16.6671 11.5723 16.685 11.5 16.685C11.4277 16.685 11.3564 16.6671 11.2927 16.6328C11.051 16.5048 5.375 13.4062 5.375 9.57812C5.37601 8.67919 5.73356 7.81736 6.36921 7.18171C7.00486 6.54606 7.86669 6.18851 8.76562 6.1875C9.89492 6.1875 10.8837 6.67312 11.5 7.49398C12.1163 6.67312 13.1051 6.1875 14.2344 6.1875C15.1333 6.18851 15.9951 6.54606 16.6308 7.18171C17.2664 7.81736 17.624 8.67919 17.625 9.57812Z" fill="#FF0000"/>
</g>
<defs>
<clipPath id="clip0_197_38879">
<rect width="14" height="14" fill="white" transform="translate(4.5 4)"/>
</clipPath>
</defs>
</svg>
