<svg width="23" height="22" viewBox="0 0 23 22" fill="none" xmlns="http://www.w3.org/2000/svg">
<g id="Frame" clip-path="url(#clip0_99_15068)">
<path id="iconFill" fill-rule="evenodd" clip-rule="evenodd" d="M16.7435 1.01295C14.1019 0.83424 12.3138 2.61742 11.3334 4.00608C10.3519 2.61645 8.5619 0.83034 5.92422 1.01295C2.79728 1.19361 0.342206 3.86643 0.333416 7.09588C0.316816 13.2208 5.28164 17.4561 9.60975 20.4629C10.1254 20.8213 10.7289 21 11.3334 21C11.9379 21 12.5414 20.8213 13.057 20.4629C17.3841 17.4571 22.349 13.2208 22.3333 7.09686C22.3245 3.86643 19.8695 1.19362 16.7435 1.01295ZM11.9164 18.8183C11.5668 19.0606 11.1 19.0606 10.7504 18.8183C6.58047 15.9206 2.31974 12.2631 2.33341 7.09862C2.33927 4.92364 3.96719 3.12563 6.03945 3.00551C6.1039 3.0016 6.16738 3.00063 6.23086 3.00063C8.93398 3.00063 10.3978 6.35442 10.4115 6.38665C10.5678 6.7568 10.9301 6.99705 11.3314 6.99803C11.7347 6.99803 12.097 6.75778 12.2543 6.38958C12.2689 6.35344 13.7777 2.84241 16.6283 3.00551C18.7005 3.12564 20.3275 4.92364 20.3333 7.0996C20.346 12.2641 16.0853 15.9216 11.9164 18.8183Z" fill="#292929"/>
</g>
<defs>
<clipPath id="clip0_99_15068">
<rect width="22" height="22" fill="white" transform="translate(0.333313)"/>
</clipPath>
</defs>
</svg>
