<svg width="151" height="151" viewBox="0 0 151 151" fill="none" xmlns="http://www.w3.org/2000/svg">
<g clip-path="url(#clip0_228_123413)">
<path d="M150.526 75.6597C150.526 34.2383 116.948 0.659657 75.5264 0.659657C34.105 0.659657 0.526367 34.2383 0.526367 75.6597C0.526367 113.094 27.9528 144.122 63.8076 149.749V97.3393H44.7646V75.6597H63.8076V59.1362C63.8076 40.3393 75.0046 29.9565 92.1362 29.9565C100.342 29.9565 108.925 31.4214 108.925 31.4214V49.8784H99.4675C90.1506 49.8784 87.2451 55.6597 87.2451 61.5909V75.6597H108.046L104.721 97.3393H87.2451V149.749C123.1 144.122 150.526 113.094 150.526 75.6597Z" fill="#1877F2"/>
<path d="M104.721 97.3394L108.046 75.6597H87.2451V61.5909C87.2451 55.6597 90.1506 49.8784 99.4675 49.8784H108.925V31.4214C108.925 31.4214 100.342 29.9565 92.1362 29.9565C75.0046 29.9565 63.8076 40.3394 63.8076 59.1362V75.6597H44.7646V97.3394H63.8076V149.749C67.626 150.348 71.5397 150.66 75.5264 150.66C79.5131 150.66 83.4267 150.348 87.2451 149.749V97.3394H104.721Z" fill="white"/>
</g>
<defs>
<clipPath id="clip0_228_123413">
<rect width="150" height="150" fill="white" transform="translate(0.526367 0.659668)"/>
</clipPath>
</defs>
</svg>
