<svg width="22" height="22" viewBox="0 0 22 22" fill="none" xmlns="http://www.w3.org/2000/svg">
<g id="Frame" clip-path="url(#clip0_99_15241)">
<path id="iconFill" fill-rule="evenodd" clip-rule="evenodd" d="M13.2793 0.849371C12.6196 0.284921 11.8128 0.000540767 11 7.67296e-07C10.1704 -0.000549233 9.33463 0.294581 8.64258 0.889401L2.23047 6.99923C1.44824 7.67202 1 8.6485 1 9.67869V19C1 20.1024 1.89697 21 3 21H7C8.10303 21 9 20.0909 9 18.9884V13H13V19.0011C13 19.5353 13.2075 20.0372 13.5855 20.4151C13.9634 20.792 14.4653 21 15.0005 21C15.0039 21 19 21 19 21C20.0996 20.9961 21 20.0985 21 19V9.68162C21 8.6485 20.5493 7.67105 19.8013 7.03243L13.2793 0.849371Z" fill="#292929"/>
</g>
<defs>
<clipPath id="clip0_99_15241">
<rect width="22" height="22" fill="white"/>
</clipPath>
</defs>
</svg>
