<svg width="18" height="18" viewBox="0 0 18 18" fill="none" xmlns="http://www.w3.org/2000/svg">
<g id="Menu" clip-path="url(#clip0_99_12211)">
<path id="Vector" d="M15.5 8H2.5C2.22386 8 2 8.22386 2 8.5V9.5C2 9.77614 2.22386 10 2.5 10H15.5C15.7761 10 16 9.77614 16 9.5V8.5C16 8.22386 15.7761 8 15.5 8Z" fill="#464646"/>
<path id="Vector_2" d="M15.5 3H2.5C2.22386 3 2 3.22386 2 3.5V4.5C2 4.77614 2.22386 5 2.5 5H15.5C15.7761 5 16 4.77614 16 4.5V3.5C16 3.22386 15.7761 3 15.5 3Z" fill="#464646"/>
<path id="Vector_3" d="M15.5 13H2.5C2.22386 13 2 13.2239 2 13.5V14.5C2 14.7761 2.22386 15 2.5 15H15.5C15.7761 15 16 14.7761 16 14.5V13.5C16 13.2239 15.7761 13 15.5 13Z" fill="#464646"/>
</g>
<defs>
<clipPath id="clip0_99_12211">
<rect width="18" height="18" fill="white"/>
</clipPath>
</defs>
</svg>
