<svg width="23" height="22" viewBox="0 0 23 22" fill="none" xmlns="http://www.w3.org/2000/svg">
<g id="Frame" clip-path="url(#clip0_99_12204)">
<path id="iconFill" fill-rule="evenodd" clip-rule="evenodd" d="M11.6667 3.66664C8.97037 3.66664 6.77777 5.85924 6.77777 8.55553C6.77777 11.2518 8.97037 13.4444 11.6667 13.4444C14.3629 13.4444 16.5555 11.2518 16.5555 8.55553C16.5555 5.85924 14.3629 3.66664 11.6667 3.66664ZM11.6667 11C10.3191 11 9.22221 9.90308 9.22221 8.55553C9.22221 7.20798 10.3191 6.11108 11.6667 6.11108C13.0142 6.11108 14.1111 7.20798 14.1111 8.55553C14.1111 9.90308 13.0142 11 11.6667 11ZM11.6667 0.041748C5.6009 0.041748 0.666656 4.97599 0.666656 11.0417C0.666656 17.1075 5.6009 22.0417 11.6667 22.0417C17.7324 22.0417 22.6667 17.1075 22.6667 11.0417C22.6667 4.97599 17.7324 0.041748 11.6667 0.041748ZM7.61297 18.5732C8.72001 17.5843 10.1422 17.0275 11.6667 17.0275C13.1874 17.0275 14.61 17.5855 15.7188 18.5738C14.5118 19.2261 13.1321 19.5973 11.6667 19.5973C10.2008 19.5973 8.82027 19.2255 7.61297 18.5732ZM17.7106 17.0908C16.1144 15.4887 13.9685 14.5831 11.6667 14.5831C9.36007 14.5831 7.2185 15.4896 5.62357 17.0917C4.07222 15.5421 3.1111 13.402 3.1111 11.0417C3.1111 6.32473 6.94964 2.48619 11.6667 2.48619C16.3837 2.48619 20.2222 6.32473 20.2222 11.0417C20.2222 13.4014 19.2614 15.5415 17.7106 17.0908Z" fill="#292929"/>
</g>
<defs>
<clipPath id="clip0_99_12204">
<rect width="22" height="22" fill="white" transform="translate(0.666656)"/>
</clipPath>
</defs>
</svg>
