<svg width="150" height="150" viewBox="0 0 150 150" fill="none" xmlns="http://www.w3.org/2000/svg">
<g clip-path="url(#clip0_228_123375)">
<path d="M75.0019 150.004C116.424 150.004 150.004 116.424 150.004 75.0019C150.004 33.5795 116.424 0 75.0019 0C33.5795 0 0 33.5795 0 75.0019C0 116.424 33.5795 150.004 75.0019 150.004Z" fill="black"/>
<path d="M64.5647 62.3598V58.2661C63.1612 58.0743 61.7352 57.9539 60.2792 57.9539C42.7459 57.9539 28.4822 72.2175 28.4822 89.7508C28.4822 100.508 33.8588 110.027 42.0573 115.784C36.7635 110.102 33.5164 102.491 33.5164 94.1342C33.5164 76.8529 47.3775 62.7586 64.5647 62.356V62.3598Z" fill="#25F4EE"/>
<path d="M65.3133 108.661C73.1356 108.661 79.5168 102.438 79.8065 94.6873L79.8328 25.4534H92.4824C92.219 24.0312 92.0761 22.5675 92.0761 21.0701H74.7986L74.7723 90.304C74.4826 98.0586 68.1013 104.278 60.2791 104.278C57.8485 104.278 55.5571 103.668 53.5442 102.611C56.1855 106.268 60.471 108.665 65.3171 108.665L65.3133 108.661Z" fill="#25F4EE"/>
<path d="M116.111 48.9502V45.1011C111.287 45.1011 106.791 43.6676 103.021 41.2107C106.377 45.0635 110.938 47.844 116.111 48.9502Z" fill="#25F4EE"/>
<path d="M103.021 41.2071C99.3452 36.9856 97.1103 31.4735 97.1103 25.4497H92.4824C93.7015 32.0303 97.607 37.6779 103.021 41.2071Z" fill="#FE2C55"/>
<path d="M60.2792 75.2313C52.2725 75.2313 45.7559 81.7442 45.7559 89.7546C45.7559 95.3306 48.9201 100.177 53.5405 102.607C51.8173 100.222 50.7901 97.2984 50.7901 94.1379C50.7901 86.1313 57.3068 79.6146 65.3134 79.6146C66.8071 79.6146 68.2406 79.8629 69.5989 80.2843V62.6494C68.1955 62.4576 66.7695 62.3372 65.3134 62.3372C65.0613 62.3372 64.813 62.3522 64.5609 62.356V75.901C63.2064 75.4758 61.7691 75.2313 60.2754 75.2313H60.2792Z" fill="#FE2C55"/>
<path d="M116.111 48.9502V62.3786C107.153 62.3786 98.8525 59.5116 92.0762 54.6504V89.7584C92.0762 107.292 77.8125 121.555 60.2792 121.555C53.5029 121.555 47.2195 119.418 42.0574 115.791C47.8667 122.026 56.1405 125.939 65.3172 125.939C82.8505 125.939 97.1142 111.675 97.1142 94.1417V59.0337C103.89 63.8986 112.191 66.7619 121.149 66.7619V49.4845C119.422 49.4845 117.736 49.2963 116.115 48.9502H116.111Z" fill="#FE2C55"/>
<path d="M92.0761 89.7548V54.6468C98.8524 59.5117 107.152 62.375 116.111 62.375V48.9466C110.938 47.8404 106.377 45.0599 103.021 41.2071C97.607 37.6779 93.7015 32.0303 92.4824 25.4497H79.8329L79.8065 94.6837C79.5168 102.438 73.1356 108.658 65.3133 108.658C60.4672 108.658 56.1817 106.265 53.5404 102.604C48.9163 100.169 45.7558 95.327 45.7558 89.751C45.7558 81.7444 52.2725 75.2277 60.2791 75.2277C61.7728 75.2277 63.2063 75.476 64.5646 75.8974V62.3524C47.3774 62.755 33.5164 76.8494 33.5164 94.1306C33.5164 102.491 36.7634 110.099 42.0573 115.78C47.2232 119.407 53.5028 121.544 60.2791 121.544C77.8124 121.544 92.0761 107.281 92.0761 89.7472V89.7548Z" fill="white"/>
</g>
<defs>
<clipPath id="clip0_228_123375">
<rect width="150" height="150" fill="white"/>
</clipPath>
</defs>
</svg>
