<svg width="15" height="16" viewBox="0 0 15 16" fill="none" xmlns="http://www.w3.org/2000/svg">
<g id="Frame">
<path id="iconFill" fill-rule="evenodd" clip-rule="evenodd" d="M7.98207 2.0634C7.71573 1.79706 7.28427 1.79706 7.01793 2.0634L4.29066 4.79067C4.02433 5.057 4.02433 5.48847 4.29066 5.7548C4.55699 6.02113 4.98846 6.02113 5.25479 5.7548L6.81818 4.19141V13.4546C6.81818 13.8314 7.12347 14.1364 7.5 14.1364C7.87653 14.1364 8.18182 13.8314 8.18182 13.4546V4.19141L9.74521 5.7548C9.87837 5.88797 10.0528 5.95455 10.2273 5.95455C10.4017 5.95455 10.5762 5.88797 10.7093 5.7548C10.9757 5.48847 10.9757 5.057 10.7093 4.79067L7.98207 2.0634Z" fill="#49CC93"/>
</g>
</svg>
