<svg width="150" height="106" viewBox="0 0 150 106" fill="none" xmlns="http://www.w3.org/2000/svg">
<g clip-path="url(#clip0_228_123387)">
<path d="M146.865 16.4459C145.14 9.97214 140.058 4.87436 133.604 3.14424C121.907 -5.04149e-05 75 -5.20349e-05 75 -5.20349e-05C75 -5.20349e-05 28.0937 -5.04149e-05 16.3959 3.14424C9.94227 4.87436 4.85928 9.97214 3.13443 16.4459C0 28.179 0 52.6595 0 52.6595C0 52.6595 0 77.1397 3.13443 88.8739C4.85928 95.3469 9.94227 100.445 16.3959 102.176C28.0937 105.319 75 105.319 75 105.319C75 105.319 121.907 105.319 133.604 102.176C140.058 100.445 145.14 95.3469 146.865 88.8739C150 77.1397 150 52.6595 150 52.6595C150 52.6595 150 28.179 146.865 16.4459Z" fill="#ED1D24"/>
<path d="M59.6592 74.8857L98.8637 52.6604L59.6592 30.433V74.8857Z" fill="white"/>
</g>
<defs>
<clipPath id="clip0_228_123387">
<rect width="150" height="105.319" fill="white"/>
</clipPath>
</defs>
</svg>
